<?xml version="1.0" encoding="utf-8"?>
<!-- Generator: Adobe Illustrator 19.1.0, SVG Export Plug-In . SVG Version: 6.00 Build 0)  -->
<svg version="1.1" id="Layer_1" xmlns="http://www.w3.org/2000/svg" xmlns:xlink="http://www.w3.org/1999/xlink" x="0px" y="0px"
	 width="428px" height="230px" viewBox="79 21 428 230" style="enable-background:new 79 21 428 230;" xml:space="preserve">
<style type="text/css">
	.st0{fill:#003082;}
	.st1{fill:none;}
	.st2{opacity:0.2;fill:#003082;enable-background:new    ;}
	.st3{opacity:0.1;}
	.st4{fill:none;stroke:#003082;stroke-miterlimit:10;}
</style>
<path class="st0" d="M351.8,210.1l-1-0.2c-0.1,0-0.3,0-0.4,0c-0.2,0-0.4,0-0.6,0.1c-0.1,0-0.2,0.1-0.4,0.2c-0.1,0-0.1,0.1-0.2,0.1
	c-0.4,0.3-0.7,0.7-0.8,1.2l-0.1,0.6l1.3,0.1l2,0.2v0c0-0.6,0.1-1.3,0.2-2C351.9,210.3,351.9,210.2,351.8,210.1
	C351.9,210.2,351.8,210.1,351.8,210.1z M316.7,155.7l-1.5,0.7l0.2,1l1.2-0.6l0,0l0.7-0.3L316.7,155.7z M320.2,159.2l-0.7,0.4
	l-1.9,1.1l-1.2,0.7l0.3,1l1.2-0.7l2.4-1.4l0.7-0.4L320.2,159.2z M329.7,168.7l-0.5,0.5l-7.5,7.4l-1.1,1.1l0.3,1.1l1.1-1.1l7.9-7.8
	l0.5-0.5L329.7,168.7z M362.2,127.3L345.3,103l-0.7,0.7l15.3,22l-17-20.3l-0.7,0.7l18.7,22.2l1.3,1.5c0.4-0.4,0.8-0.7,1.2-1
	L362.2,127.3z M365.7,138.2c-0.3,0-0.5,0-0.8-0.1l-0.2,1.8h1.5v-1.8C366,138.2,365.9,138.2,365.7,138.2z M365.7,130
	c-1.8,0-3.3,1.5-3.3,3.3c0,0.9,0.4,1.8,1,2.4c0.6,0.6,1.4,0.9,2.3,0.9c0.9,0,1.7-0.4,2.3-0.9c0.6-0.6,1-1.5,1-2.4
	C369,131.5,367.5,130,365.7,130z M365.7,135.6c-1.3,0-2.3-1-2.3-2.3c0-1.3,1-2.3,2.3-2.3s2.3,1,2.3,2.3
	C368,134.6,367,135.6,365.7,135.6z M392.6,151.8l-16.9-12l17.2,9.9l0-0.2c0-0.3,0.1-0.6,0.2-0.9l-21.3-12.3l-1.7-1
	c-0.2,0.4-0.5,0.8-0.8,1.1l1.6,1.2l21.5,15.2l1.9,1.3l0.1-1.1L392.6,151.8z M447.1,129.1h-0.7c-1.3,0-2.5,0.6-3.2,1.6
	c-0.1-3.2-0.4-6.3-0.9-9.4c0.1,0.1,0.3,0.3,0.5,0.4c0.7,0.4,1.4,0.7,2.2,0.7c0.3,0,0.5,0,0.8-0.1l0.6-0.1c2.1-0.4,3.5-2.5,3.1-4.7
	l-0.2-1c-0.4-2.1-2.5-3.5-4.7-3.1l-0.6,0.1c-1,0.2-1.9,0.8-2.5,1.7c-0.1,0.2-0.2,0.3-0.3,0.5c-0.7-3.1-1.6-6.1-2.7-9
	c0.6,0.3,1.3,0.6,2,0.6c0.5,0,1-0.1,1.5-0.3l0.6-0.2c2-0.8,3-3.2,2.1-5.2l-0.4-0.9c-0.4-1-1.2-1.7-2.1-2.1c-1-0.4-2-0.4-3,0
	l-0.6,0.2c-1.2,0.5-2,1.5-2.3,2.7c-1.3-2.8-2.8-5.6-4.4-8.3c0.4,0.1,0.8,0.2,1.3,0.2c0.8,0,1.5-0.2,2.2-0.7l0.5-0.4
	c1.2-0.8,1.8-2.1,1.7-3.5c0-0.7-0.2-1.4-0.7-2l-0.6-0.8c-1.2-1.8-3.7-2.3-5.5-1.1l-0.5,0.4c-1.1,0.7-1.7,1.9-1.7,3.1
	c-1.8-2.5-3.8-5-5.9-7.2c0.2,0,0.3,0,0.5,0c1.1,0,2-0.4,2.8-1.2l0.5-0.4c0.8-0.8,1.2-1.7,1.2-2.8s-0.4-2-1.2-2.8l-0.7-0.7
	c-1.5-1.5-4-1.5-5.6,0l-0.5,0.5c-0.9,0.9-1.3,2.1-1.1,3.3c-1.6-1.5-3.3-2.9-5-4.3c-0.7-0.5-1.4-1.1-2.1-1.6c0.1,0,0.3,0,0.4-0.1
	c1-0.2,1.9-0.8,2.5-1.7L415,69c0.6-0.9,0.8-1.9,0.6-3c-0.2-1-0.8-1.9-1.7-2.5l-0.8-0.6c-1.8-1.2-4.3-0.7-5.5,1.1l-0.4,0.5
	c-0.7,1-0.8,2.2-0.5,3.3c-2.6-1.6-5.2-3-8-4.3c1.1-0.3,2-1.1,2.4-2.2l0.2-0.6c0.8-2-0.1-4.3-2.1-5.2l-0.9-0.4c-1-0.4-2-0.4-3,0
	c-1,0.4-1.7,1.2-2.1,2.1L393,58c-0.4,1-0.4,2.1,0,3c0,0.1,0.1,0.2,0.1,0.2c-2.8-1-5.6-1.9-8.5-2.6c0.9-0.5,1.6-1.5,1.8-2.6l0.1-0.6
	c0.2-1,0-2.1-0.6-3c-0.6-0.9-1.5-1.5-2.5-1.7l-1-0.2c-1-0.2-2.1,0-3,0.6c-0.9,0.6-1.5,1.5-1.7,2.5l-0.1,0.6c-0.2,1,0,2.1,0.6,3
	c0,0,0.1,0.1,0.1,0.1c-2.9-0.5-5.8-0.8-8.7-0.9c0.8-0.7,1.2-1.7,1.2-2.9V53c0-2.2-1.8-4-4-4h-1c-2.2,0-3.9,1.8-3.9,4v0.6
	c0,1.1,0.5,2.1,1.2,2.8c-2.9,0.1-5.8,0.4-8.6,0.8c0.6-0.8,0.8-1.9,0.6-2.9l-0.1-0.6c-0.4-2.1-2.5-3.5-4.7-3.1l-1,0.2
	c-2.1,0.4-3.5,2.5-3.1,4.7l0.1,0.6c0.2,1.1,0.8,1.9,1.7,2.5c-2.8,0.7-5.5,1.5-8.1,2.4c0.3-0.9,0.4-2,0-2.9l-0.2-0.6
	c-0.4-1-1.2-1.7-2.1-2.1c-1-0.4-2-0.4-3,0l-0.9,0.4c-2,0.8-3,3.2-2.1,5.2l0.2,0.6c0.4,0.9,1.1,1.7,2,2.1c-2.6,1.2-5,2.5-7.4,3.9
	c0.2-0.9,0-1.9-0.6-2.8l-0.4-0.5c-0.6-0.9-1.5-1.5-2.5-1.7c-1-0.2-2.1,0-3,0.6l-0.8,0.6c-0.9,0.6-1.5,1.5-1.7,2.5
	c-0.2,1,0,2.1,0.6,3l0.4,0.5c0.5,0.8,1.4,1.4,2.4,1.6c-2.3,1.6-4.4,3.4-6.5,5.3c0-1-0.4-1.9-1.1-2.6l-0.4-0.5
	c-1.5-1.5-4.1-1.5-5.6,0l-0.7,0.7c-0.7,0.7-1.2,1.7-1.2,2.8s0.4,2.1,1.2,2.8l0.5,0.4c0.7,0.7,1.6,1.1,2.6,1.1
	c-1.9,2-3.6,4.2-5.3,6.4c-0.2-0.9-0.8-1.7-1.6-2.3l-0.5-0.4c-1.8-1.2-4.3-0.7-5.5,1.1L296,87c-0.6,0.9-0.8,1.9-0.6,3
	c0.2,1,0.8,1.9,1.7,2.5l0.5,0.4c0.7,0.4,1.4,0.7,2.2,0.7c0.2,0,0.3,0,0.5,0c-1.4,2.3-2.7,4.7-3.9,7.2c-0.4-0.8-1.1-1.5-2-1.8
	l-0.6-0.2c-1-0.4-2-0.4-3,0c-1,0.4-1.7,1.2-2.1,2.1l-0.4,0.9c-0.4,1-0.4,2,0,3c0.4,1,1.2,1.7,2.1,2.1l0.6,0.2c0.5,0.2,1,0.3,1.5,0.3
	c0.4,0,0.8-0.1,1.2-0.2c-0.9,2.5-1.7,5.1-2.4,7.8c-0.6-0.7-1.3-1.2-2.3-1.4l-0.6-0.1c-2.1-0.4-4.2,1-4.7,3.1l-0.2,1
	c-0.2,1,0,2.1,0.6,3c0.6,0.9,1.5,1.5,2.5,1.7l0.6,0.1c0.2,0,0.5,0.1,0.8,0.1c0.6,0,1.3-0.2,1.8-0.5c-0.2,1.2-0.3,2.5-0.5,3.8
	c-0.1,0.4-0.1,0.9-0.1,1.3c0.7-0.7,1.4-1.5,2.2-2.2c0-0.4,0.1-0.8,0.2-1.3c0.3-2.1,0.6-4.1,1.1-6.2l2.9,2.8l3.4,3.3l0,0
	c0.3,0.2,0.5,0.5,0.8,0.7l0.1,0c0,0,0,0.1,0,0.1c0.6,0.6,1.2,1.1,1.8,1.7c0.1-0.5,0.1-1.1,0.2-1.6v0c0.1-0.5,0.2-1,0.2-1.6l4.1,0.7
	l1,0.2l-0.1-0.1l0.8-0.8l-0.9-0.2l-4.8-0.9c0.3-1.6,0.6-3.2,1.1-4.8l7.4,2l0.8,0.2l0.8-0.8l-0.9-0.2l-7.9-2.2
	c1.4-5.1,3.4-9.9,6-14.3l11.7,6.8l0.7,0.4l0.7-0.7l-0.7-0.4l-11.9-6.9c0.8-1.4,1.7-2.8,2.7-4.2l11.9,8.4l0.6,0.5l0.7-0.7l-0.6-0.5
	l-12-8.5c3-4.2,6.5-8,10.5-11.4l9.8,11.7l0.5,0.6l0.7-0.7l-0.5-0.6l-9.8-11.6c1.3-1.1,2.6-2.1,4-3l8.4,12.1l0.4,0.6l0.7-0.7
	l-0.5-0.6l-8.3-11.9c4.2-2.9,8.8-5.3,13.7-7.2l19.6,54l0.7,1.9c0.5-0.2,1-0.4,1.5-0.5l-0.5-1.9l-14.6-55.6c4.9-1.3,10.1-1.9,15.3-2
	v59.5c0.2,0,0.3,0,0.5,0c0.4,0,0.8,0,1.1,0.1l0.2-2l5.2-57.3c5.3,0.5,10.3,1.7,15.1,3.3l-19.7,54.1l-0.7,1.9c0.5,0.1,1,0.4,1.4,0.7
	l0.8-1.8l24.6-52.2c4.7,2.3,9.1,5.1,13.1,8.4l-37.1,44.2l-1.3,1.5c0.4,0.3,0.8,0.7,1.1,1.1l1.4-1.4l41-40.7
	c3.6,3.7,6.8,7.8,9.5,12.3l-50.1,28.9l-1.7,1c0.3,0.4,0.5,0.9,0.6,1.4l1.8-0.8l52.6-24.3c2.1,4.7,3.7,9.7,4.7,14.9l-57.1,10.1
	l-2,0.3c0.1,0.3,0.1,0.7,0.1,1.1c0,0.1,0,0.2,0,0.3l2-0.2l57.8-4.8c0.1,1.6,0.2,3.2,0.2,4.9c0,3.7-0.3,7.3-0.9,10.8l-57.2-10.1
	l-2-0.3c0,0.5-0.2,0.9-0.4,1.3l1.9,0.5l56.1,15.3c-1.4,5.1-3.5,10-6.1,14.5l-20.5-11.8l0,0l0.2,1.2l0,0l19.9,11.5
	c-0.8,1.4-1.7,2.8-2.6,4.1l-16.8-11.8l0,0l0.2,1.3l0,0l16,11.3c-3.1,4.3-6.7,8.2-10.7,11.6l-2.9-3.5l0,0l0.2,1.8l0,0l1.9,2.3
	c-0.5,0.4-1,0.8-1.5,1.2l0.3,2.3l0,0c0.6-0.4,1.2-0.9,1.7-1.3l0.5,9.2l-1.3-0.6h0l0.1,1.2l1.2,0.5c-0.4,0.2-0.7,0.5-1.1,0.7
	c0,0.3,0,0.7,0,1c0,0.3-0.1,0.6-0.2,0.9c-0.1,0.2-0.1,0.5-0.2,0.7c0,0,0,0,0,0c0.1,0,0.1-0.1,0.2-0.1c-0.3,1.1-0.2,2.3,0.5,3.3
	l0.4,0.5c0.4,0.6,0.9,1,1.4,1.3c0.4,0.2,0.9,0.4,1.4,0.4c0.2,0,0.3,0,0.4,0c0.8,0,1.5-0.2,2.2-0.7l0.8-0.6c0.3-0.2,0.5-0.4,0.7-0.6
	c0.4-0.4,0.6-0.9,0.8-1.4c0.4-1.1,0.3-2.4-0.4-3.5l-0.4-0.5c-0.7-1-1.8-1.6-3-1.7c2.5-1.8,4.9-3.8,7.1-5.9c-0.2,1.2,0.2,2.4,1.1,3.3
	l0.5,0.5c0.8,0.8,1.8,1.2,2.8,1.2s2-0.4,2.8-1.2l0.7-0.7c1.5-1.5,1.5-4,0-5.6l-0.5-0.5c-0.9-0.9-2.1-1.3-3.3-1.1
	c2.1-2.3,4.1-4.7,5.9-7.2c0.1,1.2,0.7,2.4,1.7,3.1l0.5,0.4c0.7,0.4,1.4,0.7,2.2,0.7c1.3,0,2.5-0.6,3.3-1.8l0.6-0.8
	c1.2-1.8,0.7-4.3-1.1-5.5l-0.5-0.4c-1.1-0.7-2.4-0.8-3.5-0.4c1.6-2.7,3.1-5.4,4.4-8.3c0.3,1.2,1.1,2.2,2.3,2.7l0.6,0.2
	c0.5,0.2,1,0.3,1.5,0.3c0.5,0,1-0.1,1.5-0.3c1-0.4,1.7-1.2,2.1-2.1l0.4-0.9c0.8-2-0.1-4.3-2.1-5.2l-0.6-0.2
	c-1.2-0.5-2.5-0.4-3.5,0.3c1.1-2.9,2-5.9,2.7-9c0.1,0.2,0.2,0.4,0.3,0.5c0.6,0.9,1.5,1.5,2.5,1.7l0.6,0.1c0.3,0,0.5,0.1,0.8,0.1
	c0.8,0,1.5-0.2,2.2-0.7c0.9-0.6,1.5-1.5,1.7-2.5l0.2-1c0.4-2.1-1-4.2-3.1-4.6l-0.6-0.1c-1-0.2-2.1,0-3,0.6c-0.2,0.1-0.3,0.2-0.5,0.4
	c0.5-3.1,0.8-6.2,0.9-9.4c0.7,1,1.9,1.6,3.2,1.6h0.7c2.2,0,4-1.8,4-4v-1C451.1,130.9,449.3,129.1,447.1,129.1z M443.2,116.4
	c0.3-0.4,0.7-0.7,1.2-0.8l0.6-0.1c1-0.2,2.1,0.5,2.3,1.5l0.2,1c0.1,0.5,0,1-0.3,1.5c-0.3,0.4-0.7,0.7-1.2,0.8l-0.6,0.1
	c-0.5,0.1-1,0-1.5-0.3c-0.4-0.3-0.7-0.7-0.8-1.2l-0.2-1C442.8,117.3,443,116.8,443.2,116.4z M290.2,117.8l-0.2,1
	c-0.1,0.5-0.4,1-0.8,1.2c-0.4,0.3-1,0.4-1.5,0.3l-0.6-0.1c-0.5-0.1-1-0.4-1.2-0.8c-0.3-0.4-0.4-1-0.3-1.5l0.2-1
	c0.2-0.9,1-1.6,1.9-1.6c0.1,0,0.2,0,0.4,0l0.6,0.1C289.7,115.8,290.4,116.8,290.2,117.8z M441.1,127.5l-7.7-4l6.2-6.1
	C440.3,120.7,440.8,124,441.1,127.5z M431.9,123.9l8.2,4.2l-7.5,5.4C432.6,130.2,432.4,127,431.9,123.9z M440.1,139.2l-8.2,4.2
	c0.5-3.2,0.7-6.4,0.7-9.6L440.1,139.2z M439.5,100.7l0.6-0.2c0.5-0.2,1-0.2,1.5,0c0.5,0.2,0.9,0.6,1.1,1l0.4,0.9
	c0.4,1-0.1,2.1-1.1,2.5l-0.6,0.2c-1,0.4-2.1-0.1-2.6-1.1l-0.4-0.9C438,102.2,438.5,101.1,439.5,100.7z M439.4,116.4l-8.2-2.8
	l5.2-6.9C437.6,109.8,438.6,113,439.4,116.4z M436,105.7l-8.5-1.5l4.1-7.6C433.3,99.5,434.7,102.5,436,105.7z M431.7,87.1l0.5-0.4
	c0.9-0.6,2.1-0.4,2.7,0.5l0.6,0.8c0.2,0.3,0.3,0.6,0.3,0.9c0.1,0.7-0.2,1.4-0.9,1.8l-0.5,0.4c-0.9,0.6-2.1,0.4-2.7-0.5l-0.5-0.8
	c-0.2-0.2-0.3-0.5-0.3-0.8C430.7,88.3,431,87.5,431.7,87.1z M425.3,87.2c0.5,0.6,0.9,1.2,1.4,1.8c1.6,2.1,3,4.3,4.4,6.6l-8.7-0.2
	l2.3-6.4L425.3,87.2z M421.3,75.3l0.5-0.5c0.4-0.4,0.9-0.6,1.4-0.6s1,0.2,1.4,0.6l0.7,0.7c0.4,0.4,0.6,0.9,0.6,1.4
	c0,0.5-0.2,1-0.6,1.4l-0.5,0.5c-0.7,0.7-2,0.7-2.8,0l-0.7-0.7C420.6,77.3,420.6,76,421.3,75.3z M424.7,86.4l-8.6,1.1l1.7-8.5
	C420.2,81.2,422.5,83.7,424.7,86.4z M409.4,83c-0.5-0.4-1-0.8-1.5-1.2l1.1-0.3l7.6-2.1l-1.8,9C413.1,86.4,411.3,84.6,409.4,83z
	 M412,74C412,74,412,74,412,74c1.7,1.3,3.4,2.7,5,4.2l-8,2.2l-0.4,0.1l0.4-8.7C410,72.5,411,73.2,412,74z M408.9,65.7l0.4-0.5
	c0.4-0.6,1-0.9,1.6-0.9c0.4,0,0.8,0.1,1.1,0.3l0.8,0.6c0.4,0.3,0.7,0.7,0.8,1.2c0.1,0.5,0,1-0.3,1.5l-0.4,0.5
	c-0.3,0.4-0.7,0.7-1.2,0.8c-0.5,0.1-1,0-1.5-0.3l-0.8-0.5C408.6,67.8,408.3,66.6,408.9,65.7z M394.9,58.8l0.2-0.6
	c0.2-0.5,0.6-0.9,1.1-1.1c0.2-0.1,0.5-0.2,0.8-0.2s0.5,0,0.7,0.2l0.9,0.4c1,0.4,1.5,1.6,1.1,2.6l-0.2,0.6c-0.4,1-1.6,1.5-2.5,1.1
	l-0.9-0.4c-0.5-0.2-0.8-0.6-1-1.1C394.7,59.8,394.7,59.2,394.9,58.8z M398.5,65.7l-7.4,4.8l-2.2-8.5
	C392.2,62.9,395.4,64.2,398.5,65.7z M379.7,54.7l0.1-0.6c0.1-0.5,0.4-1,0.8-1.2c0.4-0.3,1-0.4,1.5-0.3l1,0.2c0.5,0.1,1,0.4,1.2,0.8
	c0.3,0.4,0.4,0.9,0.3,1.5l-0.1,0.6c-0.1,0.5-0.4,1-0.8,1.2c-0.4,0.3-1,0.4-1.5,0.3l-1-0.2c-0.5-0.1-1-0.4-1.2-0.8
	C379.7,55.7,379.6,55.2,379.7,54.7z M364.1,53c0-1.1,0.9-2,1.9-2h1c1.1,0,2,0.9,2,2v0.6c0,1.1-0.9,2-2,2h-1c-1.1,0-1.9-0.9-1.9-2V53
	z M350,52.7l1-0.2c0.1,0,0.3,0,0.4,0c0.9,0,1.7,0.6,1.9,1.6l0.1,0.6c0.1,0.5,0,1-0.3,1.5c-0.3,0.4-0.7,0.7-1.2,0.8l-1,0.2
	c-1.1,0.2-2.1-0.5-2.3-1.5l-0.1-0.6C348.2,53.9,348.9,52.9,350,52.7z M333.7,60.6l-0.2-0.6c-0.4-1,0.1-2.1,1-2.6l0.9-0.4
	c0.2-0.1,0.5-0.2,0.7-0.2s0.5,0,0.8,0.2c0.5,0.2,0.9,0.6,1.1,1.1l0.2,0.6c0.2,0.5,0.2,1,0,1.5c-0.2,0.5-0.6,0.9-1.1,1.1l-0.9,0.4
	c-0.5,0.2-1,0.2-1.5,0C334.3,61.5,333.9,61.1,333.7,60.6z M320.1,68.4l-0.4-0.5c-0.3-0.4-0.4-1-0.3-1.5c0.1-0.5,0.4-1,0.8-1.2
	l0.8-0.6c0.3-0.2,0.7-0.3,1.1-0.3c0.1,0,0.3,0,0.4,0c0.5,0.1,1,0.4,1.2,0.8l0.4,0.5c0.6,0.9,0.4,2.1-0.5,2.7l-0.8,0.5
	c-0.4,0.3-1,0.4-1.5,0.3C320.8,69.2,320.4,68.9,320.1,68.4z M323.5,71.7l0.4,8.8l-8.5-2.4C318,75.8,320.7,73.7,323.5,71.7z
	 M308.3,78.8l-0.5-0.5c-0.4-0.4-0.6-0.8-0.6-1.4c0-0.5,0.2-1,0.6-1.4l0.7-0.7c0.4-0.4,0.9-0.6,1.4-0.6c0.5,0,1,0.2,1.4,0.6l0.5,0.5
	c0.4,0.4,0.6,0.9,0.6,1.4c0,0.5-0.2,1-0.6,1.4l-0.7,0.7C310.3,79.5,309,79.5,308.3,78.8z M314.8,78.8l1.7,8.7l-8.8-1.1
	C309.9,83.7,312.2,81.1,314.8,78.8z M307.2,87.1l3,8.3l-8.8,0.2C303.1,92.6,305,89.8,307.2,87.1z M300.2,91.5c-0.5,0.1-1,0-1.5-0.3
	l-0.5-0.4c-0.4-0.3-0.7-0.7-0.8-1.2c-0.1-0.5,0-1,0.3-1.5l0.6-0.8c0.4-0.6,1-0.9,1.6-0.9c0.4,0,0.8,0.1,1.1,0.3l0.5,0.4
	c0.4,0.3,0.7,0.7,0.8,1.2c0.1,0.5,0,1-0.3,1.5l-0.5,0.8C301.1,91.1,300.7,91.3,300.2,91.5z M300.9,96.4l4.2,7.8l-8.7,1.5
	C297.7,102.5,299.2,99.4,300.9,96.4z M293.2,105.2c-0.5,0.2-1,0.2-1.5,0l-0.6-0.2c-0.5-0.2-0.9-0.6-1.1-1.1c-0.2-0.5-0.2-1,0-1.5
	l0.4-0.9c0.3-0.8,1-1.2,1.8-1.2c0.2,0,0.5,0.1,0.8,0.2l0.6,0.2c1,0.4,1.5,1.6,1.1,2.6l-0.4,0.9C294.1,104.6,293.7,105,293.2,105.2z
	 M296,106.5l5.3,7l-8.4,2.8C293.8,113,294.8,109.8,296,106.5z M300.2,122.8c0,0.1,0,0.2,0,0.3l-2.3-2.3l-3.8-3.7l8.1-2.7
	C301.3,117.1,300.7,119.9,300.2,122.8z M302.4,113.4l-5.2-6.8l8.4-1.5C304.5,107.7,303.3,110.5,302.4,113.4z M306.2,104.1l-4.1-7.5
	l8.6-0.2C309,98.8,307.5,101.4,306.2,104.1z M311.3,95.5l-2.9-8.1l8.5,1.1C314.9,90.7,313,93,311.3,95.5z M317.6,87.8l-1.7-8.5
	l8.3,2.3C321.8,83.5,319.6,85.6,317.6,87.8z M325,81l-0.4-8.6l7.9,3.6C329.8,77.5,327.3,79.2,325,81z M332.3,74.8l-8.1-3.6
	c2.9-1.9,5.9-3.6,9-5.2L332.3,74.8z M333.2,75.5l0.9-8.6l7.3,4.7C338.6,72.7,335.9,74,333.2,75.5z M334,65.6
	c3.1-1.5,6.3-2.8,9.6-3.8l-2.2,8.6L334,65.6z M362.9,124.4l-18.8-51.7c1.6-0.6,3.2-1.1,4.8-1.5L362.9,124.4z M342.3,71.2l2.1-8.4
	l6.6,5.8C348,69.3,345.1,70.2,342.3,71.2z M344.5,61.6c3.3-1,6.6-1.8,10.1-2.3l-3.4,8.2L344.5,61.6z M351.8,68.4l3.4-8l5.7,6.7
	C357.8,67.3,354.8,67.8,351.8,68.4z M355.5,59.1c3.4-0.5,6.8-0.7,10.3-0.8l-4.6,7.5L355.5,59.1z M361.7,67l4.6-7.5l4.6,7.5
	c-1.6-0.1-3.3-0.2-4.9-0.2C364.5,66.9,363.1,66.9,361.7,67z M366.2,124V68.9c1.7,0,3.4,0.1,5,0.2L366.2,124z M366.7,58.4
	c3.5,0,6.9,0.3,10.3,0.8l-5.7,6.8L366.7,58.4z M371.6,67.1l5.7-6.8l3.5,8.2C377.8,67.9,374.7,67.4,371.6,67.1z M377.9,59.3
	c3.4,0.5,6.8,1.3,10,2.3l-6.6,5.8L377.9,59.3z M381.4,68.7l6.7-5.9l2.2,8.7C387.5,70.4,384.5,69.4,381.4,68.7z M369.5,124.7
	l18.9-51.8c1.6,0.6,3.1,1.2,4.6,1.9L369.5,124.7z M390.9,71.7l7.5-4.9l0.9,9C396.6,74.3,393.8,72.9,390.9,71.7z M408.2,71.2l-8,3.6
	l-0.9-8.7C402.4,67.6,405.4,69.3,408.2,71.2z M399.8,76.1l8.2-3.7l-0.5,9.1C405.1,79.5,402.5,77.7,399.8,76.1z M372.5,126.2l35.2-42
	c1.3,1.1,2.5,2.2,3.7,3.4L372.5,126.2z M415.4,88.8C415.3,88.8,415.3,88.8,415.4,88.8c-0.1-0.1-0.1-0.2-0.2-0.3l9.1-1.1l-0.6,1.6
	l-2.6,7C419.3,93.5,417.4,91.1,415.4,88.8z M374.9,128.8l47.2-27.3c0.8,1.4,1.6,2.9,2.3,4.4L374.9,128.8z M421.3,96.3l9.2,0.2
	l-4.4,8.1C424.7,101.8,423,99,421.3,96.3z M426.2,105l9.1,1.6l-5.6,7.4C428.7,110.8,427.6,107.8,426.2,105z M376.5,132.2l53.3-9.4
	c0.3,1.6,0.5,3.2,0.6,4.9L376.5,132.2z M429.8,114.2l8.7,2.9l-6.6,6.5C431.4,120.4,430.7,117.2,429.8,114.2z M431.9,143.7l6.6,6.5
	l-8.8,3C430.7,150,431.4,146.9,431.9,143.7z M376.8,136l52.8,9.3c-0.3,1.6-0.6,3.2-1.1,4.8L376.8,136z M429.7,153.3l5.6,7.4
	l-9.1,1.6C427.5,159.4,428.7,156.4,429.7,153.3z M426,162.5l4.4,8.1l-9.3,0.2C423,168.2,424.6,165.4,426,162.5z M421,171.1l3.2,8.7
	l-9.2-1.1C417.2,176.3,419.2,173.8,421,171.1z M407.8,185.4c2.5-2,4.9-4.2,7.1-6.6l1.8,9.1L407.8,185.4z M413,198.7l0.4,0.5
	c0.6,0.9,0.4,2.1-0.5,2.7l-0.8,0.6c-0.9,0.6-2.1,0.3-2.7-0.5l-0.4-0.5c-0.6-0.9-0.3-2.1,0.5-2.7l0.8-0.5
	C411.2,197.5,412.4,197.8,413,198.7z M409,195.3l-0.4-8.6l8.3,2.3C414.4,191.3,411.8,193.4,409,195.3z M424.8,188.3l0.5,0.5
	c0.8,0.8,0.8,2,0,2.8l-0.7,0.7c-0.8,0.8-2,0.8-2.8,0l-0.5-0.5c-0.8-0.8-0.8-2,0-2.8l0.7-0.7C422.8,187.6,424,187.6,424.8,188.3z
	 M417.7,188.2l-1.7-8.4l8.5,1.1C422.5,183.5,420.2,185.9,417.7,188.2z M425.3,179.9l-2.9-8.1l8.6-0.2
	C429.2,174.5,427.4,177.3,425.3,179.9z M434.4,175.9l0.5,0.4c0.9,0.6,1.1,1.8,0.5,2.7l-0.6,0.8c-0.6,0.9-1.8,1.1-2.7,0.5l-0.5-0.4
	c-0.9-0.6-1.1-1.8-0.5-2.7l0.5-0.8C432.3,175.6,433.5,175.3,434.4,175.9z M431.5,170.6l-4.1-7.5l8.5-1.5
	C434.7,164.7,433.2,167.7,431.5,170.6z M438.8,162.9c0.3-0.8,1-1.2,1.8-1.2c0.2,0,0.5,0,0.8,0.1l0.6,0.2c0.5,0.2,0.9,0.6,1.1,1.1
	s0.2,1,0,1.5l-0.4,0.9c-0.2,0.5-0.6,0.9-1.1,1.1c-0.5,0.2-1,0.2-1.5,0l-0.6-0.2c-1-0.4-1.5-1.6-1.1-2.5L438.8,162.9z M436.4,160.5
	l-5.2-6.9l8.2-2.8C438.5,154.2,437.6,157.4,436.4,160.5z M439.6,149.8l-6.2-6l7.7-4C440.8,143.2,440.3,146.5,439.6,149.8z
	 M441.2,138.7l-7-5l7-5c0.1,1.6,0.2,3.3,0.2,5C441.4,135.3,441.3,137,441.2,138.7z M442.9,149.2l0.2-1c0.1-0.5,0.4-1,0.8-1.2
	c0.3-0.2,0.7-0.3,1.1-0.3c0.1,0,0.3,0,0.4,0l0.6,0.1c0.5,0.1,1,0.4,1.2,0.8c0.3,0.4,0.4,1,0.3,1.5l-0.2,1c-0.1,0.5-0.4,1-0.8,1.2
	c-0.4,0.3-1,0.4-1.5,0.3l-0.6-0.1c-0.5-0.1-0.9-0.4-1.2-0.8C443,150.3,442.8,149.8,442.9,149.2z M449.1,134c0,1.1-0.9,2-2,2h-0.7
	c-1.1,0-2-0.9-2-2v-1c0-1.1,0.9-1.9,2-1.9h0.7c1.1,0,2,0.9,2,1.9V134z M392.6,151.8l-16.9-12l17.2,9.9l0-0.2c0-0.3,0.1-0.6,0.2-0.9
	l-21.3-12.3l-1.7-1c-0.2,0.4-0.5,0.8-0.8,1.1l1.6,1.2l21.5,15.2l1.9,1.3l0.1-1.1L392.6,151.8z M365.7,130c-1.8,0-3.3,1.5-3.3,3.3
	c0,0.9,0.4,1.8,1,2.4c0.6,0.6,1.4,0.9,2.3,0.9c0.9,0,1.7-0.4,2.3-0.9c0.6-0.6,1-1.5,1-2.4C369,131.5,367.5,130,365.7,130z
	 M365.7,135.6c-1.3,0-2.3-1-2.3-2.3c0-1.3,1-2.3,2.3-2.3s2.3,1,2.3,2.3C368,134.6,367,135.6,365.7,135.6z M362.2,127.3L345.3,103
	l-0.7,0.7l15.3,22l-17-20.3l-0.7,0.7l18.7,22.2l1.3,1.5c0.4-0.4,0.8-0.7,1.2-1L362.2,127.3z M364.2,138c-0.1,0-0.3-0.1-0.4-0.2
	c-0.1-0.1-0.3-0.1-0.4-0.2l-1.1,2.4h1.6l0.7-1.9C364.5,138.1,364.3,138,364.2,138z M365.7,138.2c-0.3,0-0.5,0-0.8-0.1l-0.2,1.8h1.5
	v-1.8C366,138.2,365.9,138.2,365.7,138.2z M367.8,137.8c-0.2,0.1-0.3,0.1-0.5,0.2c0,0-0.1,0-0.1,0c-0.2,0.1-0.4,0.1-0.6,0.1l0.5,1.9
	h1.6L367.8,137.8z M400.6,204.6c-0.6,0.1-1.2,0.2-1.9,0.2h-1.5c-1.5,0-2.9-0.4-4.1-1.1c-0.4,0.2-0.8,0.3-1.2,0.4
	c0.2,0.1,0.3,0.2,0.5,0.3c0.5,0.3,1,0.6,1.5,0.8c0.2,0,0.3,0.1,0.4,0.2c0.2,0.1,0.3,0.1,0.5,0.1c0.2,0.1,0.4,0.1,0.6,0.1
	c0.2,0,0.4,0.1,0.5,0.1h0l0.9-0.4c0.7-0.3,1.5-0.1,2.1,0.4c0.7-0.1,1.4-0.3,2.1-0.5C400.9,205,400.8,204.8,400.6,204.6z
	 M401.5,206.3l-0.2-0.6c0-0.1-0.1-0.1-0.1-0.2c0-0.1-0.1-0.2-0.1-0.3c-0.1-0.2-0.3-0.4-0.4-0.6c-0.6,0.1-1.2,0.2-1.9,0.2h-1.5
	c-1.5,0-2.9-0.4-4.1-1.1c-0.4,0.2-0.8,0.3-1.2,0.4c-0.2,0.1-0.4,0.2-0.6,0.2c-0.8,0.3-1.6,0.5-2.3,0.8l0.6-2.3l0.2-0.9v0l0.3-1.3
	c-0.3-0.5-0.5-0.9-0.7-1.4l-0.4,1.6l-0.3,1.2l-0.6,2.5l-6-5.3l-0.8-0.7c0.3-0.1,0.7-0.2,1-0.2c1.6-0.4,3.2-0.9,4.8-1.4
	c0.3-0.1,0.7-0.2,1-0.3c0.3-0.1,0.7-0.2,1-0.4c0-0.1,0-0.3,0-0.4l0.2-1.8c-0.3,0.1-0.7,0.3-1,0.4l-0.8-2.1l-15.8-43.3l-2.5-6.8
	c-0.1,0-0.2,0-0.2,0h-1.5l0.5,2l3.2,12.2l6.2,23.6l4.3,16.3c-0.7,0.2-1.4,0.3-2.1,0.5c-0.7,0.2-1.3,0.3-2,0.4c0.1,0.7,0.2,1.3,0.2,2
	c0.7-0.1,1.3-0.2,2-0.4c0.3-0.1,0.6-0.1,0.9-0.2l-0.7,1.6l-1.6,3.8c0.1,0.7,0.1,1.4,0.2,2.1l1.6-3.9l1-2.4l0.6,0.5l5.8,5.2
	c-1.9,0.6-3.9,1.1-5.8,1.5c-0.4,0.1-0.8,0.2-1.1,0.2c-0.7,0.1-1.3,0.3-2,0.4c0.2,2.4,0.4,4.7,0.6,6.8c0.1,0.5,0.1,1,0.1,1.5
	c0.6,0.4,1.3,0.6,2,0.7h0.1c0.2,0,0.5,0,0.8-0.1l1-0.2c0.2,0,0.3-0.1,0.5-0.2h0c0.5-0.2,1-0.4,1.3-0.8c0.2-0.2,0.5-0.5,0.6-0.7
	c0.6-0.9,0.8-1.9,0.6-3l-0.1-0.6c-0.2-1-0.8-1.9-1.7-2.5c-0.1,0-0.1-0.1-0.2-0.1c2.9-0.7,5.7-1.6,8.5-2.6c-0.5,1-0.6,2.2-0.1,3.2
	l0.2,0.6c0.5,1.2,1.5,2,2.7,2.3c0.3,0.1,0.6,0.1,0.9,0.1c0,0,0,0,0.1,0c0.3,0,0.7,0,1-0.1c0.2,0,0.3-0.1,0.4-0.2l0.6-0.2l0.4-0.1
	c1-0.4,1.7-1.2,2.1-2.1C401.9,208.3,401.9,207.3,401.5,206.3z M375.9,169.6l-6.4-24.3l3.8,10.4l14,38.6l0.1,0.1l0.1,0.2
	c-0.1,0-0.1,0-0.2,0.1c-1,0.4-2.1,0.7-3.2,1c-0.4,0.1-0.8,0.2-1.2,0.4L375.9,169.6z M384.7,212.1c0.1,0.5,0,1-0.3,1.5
	c-0.3,0.4-0.7,0.7-1.2,0.8l-0.6,0.1l-0.4,0.1c-0.2,0-0.4,0.1-0.6,0c-0.3,0-0.6-0.1-0.8-0.3c-0.4-0.3-0.7-0.7-0.8-1.2l-0.1-0.6
	c-0.1-0.5,0-1,0.3-1.5c0.3-0.4,0.6-0.7,1.1-0.8c0,0,0.1,0,0.1,0l0.7-0.2l0.2,0c0.1,0,0.3,0,0.4,0c0.4,0,0.8,0.1,1.1,0.3
	c0.4,0.3,0.7,0.7,0.8,1.2L384.7,212.1z M399.7,208.6c-0.1,0.3-0.4,0.6-0.7,0.8c-0.1,0.1-0.3,0.2-0.4,0.2l-0.6,0.2l-0.3,0.1
	c-0.2,0.1-0.4,0.1-0.7,0.1c-0.3,0-0.5,0-0.8-0.1c-0.1,0-0.1,0-0.2-0.1c-0.4-0.2-0.7-0.5-0.9-1l-0.2-0.6c-0.4-1,0-2.1,1-2.5
	c0,0,0.1,0,0.1-0.1l0.1,0h0l0.9-0.4c0.7-0.3,1.5-0.1,2.1,0.4c0,0,0.1,0,0.1,0.1c0.2,0.2,0.3,0.4,0.4,0.6l0.2,0.6
	C399.8,207.5,399.8,208.1,399.7,208.6z M400.6,204.6c-0.6,0.1-1.2,0.2-1.9,0.2h-1.5c-1.5,0-2.9-0.4-4.1-1.1
	c-0.4,0.2-0.8,0.3-1.2,0.4c0.2,0.1,0.3,0.2,0.5,0.3c0.5,0.3,1,0.6,1.5,0.8c0.2,0,0.3,0.1,0.4,0.2c0.2,0.1,0.3,0.1,0.5,0.1
	c0.2,0.1,0.4,0.1,0.6,0.1c0.2,0,0.4,0.1,0.5,0.1h0l0.9-0.4c0.7-0.3,1.5-0.1,2.1,0.4c0.7-0.1,1.4-0.3,2.1-0.5
	C400.9,205,400.8,204.8,400.6,204.6z M376.1,210.1c-0.1-0.6-0.3-1.3-0.4-2c-0.7,0.1-1.3,0.2-2,0.2c-2.3,0.2-4.6,0.4-6.9,0.4l4.5-7.4
	l1.2,1.5l2.7,3.2c-0.2-0.7-0.3-1.3-0.4-2.1l-2.7-3.2c0,0,0,0,0,0l-0.6-0.8c0.2,0,0.3,0,0.5,0c0.7-0.1,1.3-0.1,2-0.2
	c-0.1-0.7-0.3-1.3-0.4-2c-0.7,0.1-1.3,0.2-2,0.2c-1.8,0.2-3.6,0.2-5.4,0.2V142h-1.6l-0.2,2h0.2c-0.5,6-1.2,13.6-2.2,22.1l-2.9,31.4
	l0,0.4h0c-0.7-0.1-1.3-0.2-2-0.2c-0.1,0.7-0.2,1.3-0.4,2c0.7,0.1,1.3,0.2,2,0.2c0.6,0.1,1.3,0.1,1.9,0.2l-2.6,3.1l-2.7,3.2
	c-0.2,1.2-0.5,2.4-0.8,3.6c0.7,0.1,1.3,0.2,2,0.3c2.1,0.2,4.2,0.4,6.4,0.5c-0.3,0.3-0.5,0.6-0.7,0.9c-0.3,0.6-0.5,1.2-0.5,1.9v0
	c0.7,0.1,1.3,0.2,2,0.3v-0.3c0-0.6,0.3-1.2,0.8-1.6c0.3-0.2,0.7-0.4,1.1-0.4h1c0.7,0,1.3,0.4,1.7,1c0.2,0.3,0.3,0.6,0.3,1v0.7
	c0,0.1,0,0.3,0,0.4c0.7,0.1,1.3,0.2,2,0.3c0-0.2,0.1-0.5,0.1-0.8v-0.7c0-0.2,0-0.4-0.1-0.6c-0.1-0.9-0.6-1.7-1.2-2.2
	c1.5-0.1,2.9-0.2,4.4-0.3C374.8,210.2,375.5,210.2,376.1,210.1z M360.5,198l1.1-12l3.7-40.1v52.3C363.6,198.2,362,198.1,360.5,198z
	 M357.3,208.2c-0.6-0.1-1.2-0.1-1.7-0.2l2.4-2.8l3.2-3.8l4.5,7.4C362.9,208.7,360.1,208.5,357.3,208.2z M361.6,200
	c1.5,0.1,2.9,0.2,4.4,0.2c1.7,0,3.4-0.1,5-0.2l-4.7,7.7L361.6,200z M362.2,142c-0.3,0-0.5-0.1-0.7-0.3l-1.3,2.8l-12,25.4l-0.9,1.8
	l-9.5,20.1c-4.8-2.3-9.2-5.2-13.2-8.5l8.4-10.1l0.5-0.6l-0.7-0.7l-0.5,0.6l-8.5,10.1l-0.9-0.8c-0.6-0.5-1.2-1.1-1.8-1.7l0.9,3.5
	c0.6,0.5,1.2,1,1.8,1.5c0.2,0.1,0.3,0.3,0.5,0.4l-0.4,0.1l-1.3,0.4l0.2,1l1-0.3l-0.2,3.5l0.8,3.3l0.2-4.5l0.1-2.9
	c2.4,1.9,5,3.6,7.6,5.2l-6.5,2.9l-1.2,0.6l0.2,1l1.2-0.6l5.9-2.7l0.9,8.6c-2.1-1-4.1-2.2-6.1-3.4c-0.5-0.3-1.1-0.7-1.6-1l0.6,2.3
	l-0.5,0.1c0.5,0.3,1,0.6,1.5,0.9c2.2,1.3,4.6,2.6,7,3.7c-0.9,0.4-1.7,1.2-2,2.1l-0.2,0.6c-0.4,1-0.4,2,0,3c0,0,0,0,0,0.1
	c0.4,0.9,1.1,1.6,2,2c1.5,0,3.1,0.1,4.7,0.1c0.7-0.4,1.2-1,1.5-1.8l0.1-0.1l0.2-0.5c0.4-1,0.4-2,0-2.9c2.6,1,5.4,1.8,8.1,2.4
	c-0.5,0.4-0.9,0.8-1.2,1.4c-0.2,0.3-0.3,0.7-0.4,1.1l-0.1,0.6c0,0.1,0,0.2,0,0.2c0.7,0,1.3,0.1,2,0.1l1.3,0.1l2,0.2v0
	c0-0.6,0.1-1.3,0.2-2c0-0.1,0-0.1,0-0.2c0.1-0.9,0.2-1.8,0.2-2.8c-0.7-0.1-1.3-0.3-2-0.4c-1.9-0.4-3.7-0.9-5.5-1.4l6.2-5.5l0.3-0.2
	l1.4,3.3c0.1-0.7,0.1-1.4,0.2-2.1l-1-2.4c0.4,0.1,0.8,0.2,1.3,0.3c0.1-0.6,0.2-1.3,0.2-2c-0.7-0.1-1.3-0.3-2-0.4
	c-2.5-0.6-4.8-1.3-7.2-2.1l13.1-36.1v0l4.9-13.4l0.3-0.9l0.7-2H362.2z M333.2,191.6c2.7,1.5,5.5,2.8,8.4,4l-7.5,4.8L333.2,191.6z
	 M338.2,208.3l-0.2,0.6c-0.1,0.2-0.2,0.4-0.3,0.5c-0.2,0.2-0.4,0.4-0.7,0.5c-0.5,0.2-1,0.2-1.5,0l-0.9-0.4c-0.1-0.1-0.2-0.1-0.4-0.2
	c-0.3-0.2-0.5-0.5-0.7-0.8c-0.2-0.5-0.2-1,0-1.5l0.2-0.6c0.2-0.5,0.6-0.8,1.1-1c0.2-0.1,0.5-0.2,0.8-0.2c0.2,0,0.5,0,0.7,0.1
	l0.9,0.4C338.2,206.2,338.6,207.3,338.2,208.3z M334.2,201.5l7.3-4.7l2.1,8.4C340.3,204.2,337.2,203,334.2,201.5z M351,198.5
	C351.1,198.5,351.1,198.5,351,198.5L351,198.5l-6.6,5.9l-2.2-8.6C345.1,196.9,348,197.8,351,198.5z M358.6,151.7L343.2,194
	c-1.5-0.6-3-1.2-4.4-1.9l20.4-43.3c0,0,0,0,0,0l1.9-4L358.6,151.7z M355.2,210.7c-0.1-0.2-0.2-0.4-0.3-0.5c0,0.2-0.1,0.3-0.1,0.5
	c-0.2,0.7-0.3,1.3-0.4,2c0.3,0,0.7,0.1,1,0.1C355.5,212,355.4,211.3,355.2,210.7z M393.1,148.8l-21.3-12.3l-1.7-1
	c-0.2,0.4-0.5,0.8-0.8,1.1l1.6,1.2l21.5,15.2l1.9,1.3l0.1-1.1l-1.9-1.3l-16.9-12l17.2,9.9l1.9,1.1l0.1-1c0,0,0-0.1,0-0.1
	L393.1,148.8z M392.8,166.5l0.2-1.3l-1.8-2.1l-19.3-23c0,0,0,0,0,0l-2.8-3.3l-0.1,0.1c-0.3,0.3-0.6,0.5-1,0.7l3.5,5l18.8,27.1
	l1.7,2.5l0.2-1.5l-1.7-2.5l-17.4-25.1l17.9,21.3L392.8,166.5z M365.7,130c-1.8,0-3.3,1.5-3.3,3.3c0,0.9,0.4,1.8,1,2.4
	c0.6,0.6,1.4,0.9,2.3,0.9c0.9,0,1.7-0.4,2.3-0.9c0.6-0.6,1-1.5,1-2.4C369,131.5,367.5,130,365.7,130z M365.7,135.6
	c-1.3,0-2.3-1-2.3-2.3c0-1.3,1-2.3,2.3-2.3s2.3,1,2.3,2.3C368,134.6,367,135.6,365.7,135.6z M362.2,127.3L345.3,103l-0.7-1l-0.7,0.7
	l0.7,1l15.3,22l-17-20.3l-0.8-0.9l-0.7,0.7l0.8,1l18.7,22.2l1.3,1.5c0.4-0.4,0.8-0.7,1.2-1L362.2,127.3z M360.8,133.5l-2,0.2
	l-43.2,3.6l-0.2,0l-3.4,0.3l-1.5,0.1c0.2,0.3,0.3,0.7,0.5,1l1.5-0.1l1.9-0.2l2.2-0.2l38.3-3.2l-35.3,6.2l-1.5,0.3l0.9,0.9l1.5-0.3
	l38.7-6.8l2-0.3C360.9,134.4,360.8,134,360.8,133.5z M362,136.6l-1.4,1.4l-22.2,22.1l-0.9,0.9l0.7,0.7l0.9-0.9l18.6-18.4l-16.9,20.1
	l-0.8,1l0.7,0.7l0.8-1l17.9-21.3l3.7-4.5C362.7,137.2,362.3,136.9,362,136.6z M360.3,129l-24-17l-1-0.7l-0.7,0.7l1,0.7l21.7,15.3
	l-23.4-13.5l-1.1-0.6l-0.7,0.7l1.1,0.6l26.3,15.2l1.7,1c0.2-0.5,0.5-0.9,0.8-1.3L360.3,129z M361.1,135.2l-1.8,0.8l-30.8,14.2
	l-1.2,0.5l0.8,0.8l1.2-0.5l26.2-12.1l-24.3,14l-1.1,0.6l0.7,0.7l1.1-0.6l28.2-16.3l1.7-1C361.5,136,361.3,135.6,361.1,135.2z
	 M359.1,131.2l-33-9l-1.4-0.4l-0.8,0.8l1.4,0.4l30.1,8.2l-32.6-5.8l-1.5-0.3l-0.9,0.9l1.5,0.3l36.8,6.5l2,0.3c0-0.5,0.1-1,0.3-1.5
	L359.1,131.2z"/>
<polyline class="st1" points="316,224 428,224 426,218 "/>
<g>
	<path class="st2" d="M226.3,164l-10.4-5.3l-8.1-2.5c-0.1-1.1-0.9-2-2-2.3l-0.8-8.6l-3-11.3c-0.4-1.6-1.9-1.3-1.7,0.3l1,11.6
		l2.2,8.4c-0.6,0.5-1.1,1.2-1.1,2.1c0,0.1,0,0.3,0,0.4l-7.2,5.7l-7.8,8.6c-1.1,1.2-0.1,2.3,1.2,1.3l9.2-7.2l6-6.6
		c0.1,0,0.1,0.1,0.2,0.1l-0.5,54h3.7l-0.9-54c0.2-0.1,0.5-0.3,0.7-0.5l7.5,3.8l11.1,3.5C227.2,166.1,227.8,164.8,226.3,164z"/>
	<path class="st2" d="M247.7,185.5l-5.4-6.9l-4.9-4.5c0-0.2,0.1-0.3,0.1-0.5c0-0.5-0.2-1-0.6-1.4l2.3-6.2l1.6-8.7
		c0.2-1.2-0.8-1.5-1.3-0.3l-3,8.3l-1.2,6.4c-0.8,0.1-1.5,0.7-1.7,1.5l-6.5,1.5l-8.1,3.4c-1.1,0.5-0.8,1.5,0.4,1.2l8.6-2l6-2.5
		c0.2,0.3,0.4,0.5,0.7,0.6L234,214h2.8l-0.5-38.5l3.9,5l6.5,5.9C247.7,187.2,248.5,186.5,247.7,185.5z"/>
</g>
<g>
	<path class="st2" d="M506.9,215.3c-0.1,0.6-0.4,1.2-0.7,1.7H487v-12c1.1-0.1,2.1-0.3,3.1-0.8l0.2,2l0.3-2.3
		c1.8-1.1,3.2-2.9,3.8-5.2c0.2-0.9,0.2-1.8,0.1-2.9l-1.4-12.1v0c0.4-0.9,1.2-1.4,2.1-1.4c1.2,0,2.2,0.9,2.3,2.2l1.9,16.3l1.2-10.4
		c0.1-1.1,0.9-1.8,1.9-1.8s1.8,0.8,1.9,1.8l2.7,23.1C507,214.3,507,214.8,506.9,215.3z"/>
	<path class="st2" d="M485,205v12h-3.4c-0.5-0.7-0.9-1.5-1.1-2.4c-0.1-0.7-0.1-1.4-0.1-2.1l0.4-3.6h0c1.4-0.9,2.5-2.4,2.9-4
		C484.2,204.9,484.6,205,485,205z"/>
	<path class="st2" d="M476,211.8v3.4c-0.2,0.7-0.5,1.3-0.8,1.9H454c0,0,0-2.7,0-4v-10.7c0-4.4,3.6-8,8-8l0,0c2,0,3.8,0.9,4.9,2.4
		l1.4-11.8c0.1-1.3,1.1-2.2,2.3-2.2c1,0,1.9,0.7,2.2,1.7c-1.7,1.3-2.8,3.3-2.8,5.5v13.2c0,0.3,0,0.5,0,0.8c0,0.4,0.1,0.8,0.3,1.2
		c0.5,1.6,1.5,2.9,2.9,3.8c0.3,0.2,0.6,0.3,0.9,0.5c0.5,0.2,1.1,0.4,1.7,0.5L476,211.8z"/>
	<path class="st2" d="M397,205.8v11.8l-10-0.6c-3,0-5-1.9-5-4.9v-12.2c0-3,2.5-5.5,5.5-5.5h0.4c0.1,0,0.2,0,0.3,0l-0.1,1.1
		c-0.2,1.2-0.1,2.3,0.1,3.3C389.3,202.9,392.8,205.7,397,205.8z"/>
	<path class="st2" d="M403,218l-4-0.2v-11.9c1.1,0,2.1-0.2,3.1-0.6l0.8,7.3C403,213.3,403,218,403,218z"/>
</g>
<g>
	<g class="st3">
		<path class="st0" d="M166.6,125.9c-0.7-3.9-4.1-6.9-8.2-6.9c-2.9,0-5.5,1.5-7,3.8c-1.1-0.4-2.2-0.6-3.5-0.6
			c-4.2,0-7.8,2.3-9.6,5.8c-1-0.4-2.1-0.7-3.3-0.7c-4.6,0-8.3,4.3-8.3,8.8c0,4.6,3.7,8.8,8.3,8.8h28.6c5.1,0,9.2-4.7,9.2-9.8
			C173,131.1,170.3,127.1,166.6,125.9z"/>
	</g>
	<g class="st3">
		<path class="st0" d="M240.6,68.9c0,2.7-2.2,5.1-4.8,5.1h-17.6c-4.1,0-7.5-3.6-7.5-7.7c0-4.1,3.3-7.6,7.5-7.6c0.6,0,1.2,0,1.7,0.1
			c0.6-2.3,2.7-4.1,5.3-4.1c3,0,5.4,2.4,5.4,5.3c0.6-0.4,1.4-0.6,2.2-0.6c2.2,0,4,1.8,4,4c0,0.2,0,0.5,0,0.6
			C238.9,64.6,240.6,66.6,240.6,68.9z"/>
	</g>
	<g class="st3">
		<path class="st0" d="M460,74.6c-0.9,0-1.8,0-2.6,0.4c-0.6-3.8-3.9-6.7-7.8-6.7c-1.2,0-2.3,0.2-3.3,0.7c-1-1.9-3-3.2-5.3-3.2
			c-1.4,0-2.7,0.5-3.7,1.3c-1.3-4-5.2-7-9.7-7c-5.6,0-10.2,4.5-10.2,10.2c0,0.6,0,1.2,0.2,1.8c-0.2,0-0.5,0.3-0.7,0.3
			c-1.1,0-2.1,0.2-3,0.7c-0.7,0.3-1.3,0.7-1.8,1.1c0,0,0,0,0,0c-1.9,1.5-3.1,3.9-3.1,6.4v0c0,0.3,0,0.7,0.1,1c0.1,0.5,0.2,1,0.3,1.5
			c0.9,2.8,3.2,5.2,6,5.8c0,0,0,0,0,0c0.5,0.1,1,0.2,1.5,0.2h13.9c-0.1-0.7,0.2-1.5,0.8-1.9l0.5-0.4c0.9-0.6,2.1-0.4,2.7,0.5
			l0.6,0.8c0.2,0.3,0.3,0.6,0.3,0.9H460c3.7,0,6.8-3.6,6.8-7.4S463.8,74.6,460,74.6z M421.3,75.3l0.5-0.5c0.4-0.4,0.9-0.6,1.4-0.6
			s1,0.2,1.4,0.6l0.7,0.7c0.4,0.4,0.6,0.9,0.6,1.4c0,0.5-0.2,1-0.6,1.4l-0.5,0.5c-0.7,0.7-2,0.7-2.8,0l-0.7-0.7
			C420.6,77.3,420.6,76,421.3,75.3z"/>
	</g>
	<g class="st3">
		<path class="st0" d="M496.6,127.9c0,2.7-2.2,5.1-4.8,5.1h-17.6c-4.1,0-7.5-3.6-7.5-7.7c0-4.1,3.3-7.6,7.5-7.6c0.6,0,1.2,0,1.7,0.1
			c0.6-2.3,2.7-4.1,5.3-4.1c3,0,5.4,2.4,5.4,5.3c0.6-0.4,1.4-0.6,2.2-0.6c2.2,0,4,1.8,4,4c0,0.2,0,0.5,0,0.6
			C494.9,123.6,496.6,125.6,496.6,127.9z"/>
	</g>
</g>
<g>
	<path class="st0" d="M300.3,132.4c-0.3-0.6-0.8-1.1-1.3-1.5c-0.8-0.6-1.9-1-3-1c-0.9,0-1.8,0.3-2.6,0.7c-0.6,0.3-1.1,0.8-1.5,1.3
		c-0.6,0.8-1,1.8-1,3c0,1.1,0.4,2.1,1,3c0.4,0.5,0.9,1,1.5,1.3c0.8,0.4,1.6,0.7,2.6,0.7c1.1,0,2.1-0.4,3-1c0.5-0.4,1-0.9,1.3-1.5
		c0.4-0.8,0.7-1.6,0.7-2.6C301,134.1,300.7,133.2,300.3,132.4z M297.5,137.6c-0.5,0.3-1,0.4-1.5,0.4c-0.4,0-0.7-0.1-1.1-0.2
		c-0.7-0.2-1.2-0.7-1.5-1.3c-0.3-0.5-0.4-1-0.4-1.5s0.2-1.1,0.4-1.5c0.3-0.6,0.9-1,1.5-1.3c0.3-0.1,0.7-0.2,1.1-0.2
		c0.5,0,1.1,0.1,1.5,0.4c0.6,0.3,1,0.9,1.3,1.5c0.1,0.3,0.2,0.7,0.2,1.1s-0.1,0.7-0.2,1.1C298.6,136.7,298.1,137.2,297.5,137.6z"/>
</g>
<path class="st0" d="M341.2,163.2l-0.7-0.7l-2.4-2.4l-6.5-6.4l-0.7-0.7l-1.9-1.9l-0.8-0.8L320,142l-0.9-0.9l-3-3l-0.9-0.9l-0.1-0.1
	l-2.5,2.5c-0.2-0.4-0.3-0.8-0.5-1.2c-0.1-0.3-0.3-0.6-0.5-1c-1.4-2.8-3.6-6.3-6.8-9.9l2.6-2.6l7.8,7.8l33.2-33.2l-9.2-9.2l-1.7,1.7
	l-0.7,0.7l-2.6,2.6l-8.9,8.9l-0.7,0.7l-2.7,2.6l-0.7,0.7l-9.7,9.7l-7.9,7.9c-0.6-0.6-1.1-1.2-1.8-1.8v0c-0.6-0.5-1.2-1.1-1.8-1.6
	c-0.8-0.7-1.5-1.3-2.4-2c-0.3-0.2-0.6-0.4-0.8-0.7l-0.6-0.5l-0.6,0.5c-1.5,1.1-2.8,2.2-4,3.3c-0.8,0.7-1.6,1.5-2.3,2.2
	c-0.2,0.2-0.3,0.3-0.5,0.5l-2.5-2.5l-32.5-32.5l-0.7-0.7l-9.2,9.2l33.2,33.2l7.8-7.8l2.6,2.6c-4.1,4.6-6.5,9-7.8,12l-2.5-2.5
	l-33.2,33.2l9.2,9.2l24.2-24.2l-11.3,44.5l1.3,0.2v13h2v-9.3l9,1.3l37.1,0l8.9-1.3v7.3h2v-11l0.6-0.1l0.7-0.1l-0.5-2.1l-0.7-2.6
	l-0.2-1l-1.3-5.2l-0.8-3.3l-0.1-0.5l-0.9-3.4l-1-4l-0.3-1.1l-3.8-14.9l-0.3-1l-1-3.9l0,0l0,0l2.9,2.9l0.7,0.7l8.9,8.9l0.7,0.7
	l2.5,2.5l0.7,0.7l4.2,4.2l2.1,2.1l7.8-7.8l1.3-1.3L341.2,163.2z M345.5,99.6L315.1,130l-4.2-4.2l30.4-30.4L345.5,99.6z M339.1,93.3
	l1.4,1.4l-30.4,30.4l-1.4-1.4L339.1,93.3z M276.9,130l-30.4-30.4l4.2-4.2l30.4,30.4L276.9,130z M281.9,125.1l-30.4-30.4l1.4-1.4
	l30.4,30.4L281.9,125.1z M310.8,141.1c-2.3,0.1-4.7,0.2-7,0.3l-6.4-6.4l5.9-5.9C307.3,133.8,309.6,138.2,310.8,141.1z M296,136.4
	l2.6,2.6l2.4,2.4c-3.3,0.1-6.7,0.1-10.1,0L296,136.4z M296,142.5c2,0,4,0,6-0.1l1.3,1.3c-4.9,0.2-9.8,0.2-14.7,0l1.3-1.3
	C292,142.5,294,142.5,296,142.5z M289.7,145.9c2.1,0.1,4.2,0.1,6.3,0.1c2.4,0,4.8-0.1,7.3-0.2l8.5,54.1l-0.4,0h-29.9l-0.4,0
	L289.7,145.9z M310.1,142.1l-1.3,1.3c-0.9,0.1-1.9,0.2-2.8,0.2l-1.2-1.2C306.5,142.3,308.3,142.2,310.1,142.1z M296,122.3
	c2.3,1.8,4.2,3.6,5.9,5.4l-5.9,5.9l-1.4-1.4l-4.5-4.5C291.8,125.9,293.7,124.1,296,122.3z M288.7,129.1l2.9,2.9l3,3l-6.4,6.4
	c-2.3-0.1-4.7-0.2-7-0.3C282.4,138.2,284.6,133.8,288.7,129.1z M281.9,142.1c1.8,0.1,3.5,0.2,5.3,0.2l-1.2,1.2
	c-0.9-0.1-1.9-0.1-2.8-0.2l-0.8-0.8l0.1-0.3L281.9,142.1z M246.5,170.4l30.4-30.4l4.2,4.2l-30.4,30.4L246.5,170.4z M252.9,176.7
	l-1.4-1.4l27.5-27.5l2.5-2.5l0.3-0.4l0.1-0.1l1.4,1.4l-2.4,2.4l-2.8,2.8L252.9,176.7z M268.3,198.1l11.6-45.6l6.8-6.8
	c0.3,0,0.7,0,1,0.1l-8.5,53.8L268.3,198.1z M315,204l-36.9,0l-9.1-1.4v-2.3l12.4,1.7l30.2,0l12.4-1.7v2.3L315,204z M324.7,198.1
	l-10.9,1.5l-8.5-53.9h0l8.1,8.1L324.7,198.1z M339.1,176.7l-0.7-0.7l-23.1-23.1l-2.8-2.8l-3.8-3.8l1.4-1.4l30.4,30.4L339.1,176.7z
	 M341.3,174.6l-27.4-27.4l-2.8-2.8l-0.2-0.2l4.2-4.2l30.4,30.4L341.3,174.6z"/>
<g>
	<path class="st1" d="M317.4,221.3l-8.1,11.6c-6.3-1.3-13.1-2.5-25.7-2.5c-16.3,0-22.8,2-31.3,3.6l-43.2,0.5
		c-10-1.7-16.1-4.1-34.1-4.1c-17.5,0-23.7,2.3-33.1,4l-7.3-0.1l-3.7-7.9h93c27.3,0,81.6-5,91.4-8.3c0.1,0,0.3-0.1,0.4-0.1
		c0.8,0,1.5,0.6,1.8,1.4C317.8,220,317.8,220.7,317.4,221.3z"/>
</g>
<g>
	<path class="st0" d="M162.9,217c-1.6,0-2.9,1.3-2.9,2.9c0,1.6,1.3,2.9,2.9,2.9c1.6,0,2.9-1.3,2.9-2.9
		C165.8,218.3,164.5,217,162.9,217z M162.9,221.8c-1,0-1.9-0.8-1.9-1.9c0-1,0.8-1.9,1.9-1.9c1,0,1.9,0.8,1.9,1.9
		C164.8,220.9,163.9,221.8,162.9,221.8z"/>
</g>
<g>
	<path class="st0" d="M174.1,217c-1.6,0-2.9,1.3-2.9,2.9c0,1.6,1.3,2.9,2.9,2.9c1.6,0,2.9-1.3,2.9-2.9
		C177,218.3,175.7,217,174.1,217z M174.1,221.8c-1,0-1.9-0.8-1.9-1.9c0-1,0.8-1.9,1.9-1.9c1,0,1.9,0.8,1.9,1.9
		C176,220.9,175.2,221.8,174.1,221.8z"/>
</g>
<g>
	<path class="st0" d="M213.1,217c-1.6,0-2.9,1.3-2.9,2.9c0,1.6,1.3,2.9,2.9,2.9c1.6,0,2.9-1.3,2.9-2.9
		C216,218.3,214.7,217,213.1,217z M213.1,221.8c-1,0-1.9-0.8-1.9-1.9c0-1,0.8-1.9,1.9-1.9c1,0,1.9,0.8,1.9,1.9
		C215,220.9,214.2,221.8,213.1,221.8z"/>
</g>
<g>
	<path class="st0" d="M224.9,217c-1.6,0-2.9,1.3-2.9,2.9c0,1.6,1.3,2.9,2.9,2.9c1.6,0,2.9-1.3,2.9-2.9
		C227.8,218.3,226.5,217,224.9,217z M224.9,221.8c-1,0-1.9-0.8-1.9-1.9c0-1,0.8-1.9,1.9-1.9c1,0,1.9,0.8,1.9,1.9
		C226.8,220.9,225.9,221.8,224.9,221.8z"/>
</g>
<g>
	<path class="st0" d="M188.9,217c-1.6,0-2.9,1.3-2.9,2.9c0,1.6,1.3,2.9,2.9,2.9c1.6,0,2.9-1.3,2.9-2.9
		C191.8,218.3,190.5,217,188.9,217z M188.9,221.8c-1,0-1.9-0.8-1.9-1.9c0-1,0.8-1.9,1.9-1.9c1,0,1.9,0.8,1.9,1.9
		C190.8,220.9,189.9,221.8,188.9,221.8z"/>
</g>
<g>
	<path class="st0" d="M200.1,217c-1.6,0-2.9,1.3-2.9,2.9c0,1.6,1.3,2.9,2.9,2.9c1.6,0,2.9-1.3,2.9-2.9
		C203,218.3,201.7,217,200.1,217z M200.1,221.8c-1,0-1.9-0.8-1.9-1.9c0-1,0.8-1.9,1.9-1.9c1,0,1.9,0.8,1.9,1.9
		C202,220.9,201.2,221.8,200.1,221.8z"/>
</g>
<g>
	<path class="st0" d="M237.9,217c-1.6,0-2.9,1.3-2.9,2.9c0,1.6,1.3,2.9,2.9,2.9c1.6,0,2.9-1.3,2.9-2.9
		C240.8,218.3,239.5,217,237.9,217z M237.9,221.8c-1,0-1.9-0.8-1.9-1.9c0-1,0.8-1.9,1.9-1.9c1,0,1.9,0.8,1.9,1.9
		C239.8,220.9,238.9,221.8,237.9,221.8z"/>
</g>
<g>
	<circle class="st0" cx="300" cy="227" r="2"/>
</g>
<g>
	<rect x="198" y="231" class="st0" width="65" height="1"/>
</g>
<g>
	<line class="st4" x1="438" y1="228.5" x2="443" y2="228.5"/>
	<line class="st4" x1="426" y1="233.5" x2="431" y2="233.5"/>
	<line class="st4" x1="438" y1="238.5" x2="443" y2="238.5"/>
	<line class="st4" x1="416" y1="236.5" x2="421" y2="236.5"/>
	<line class="st4" x1="404" y1="233.5" x2="409" y2="233.5"/>
	<line class="st4" x1="455" y1="233.5" x2="450" y2="233.5"/>
	<line class="st4" x1="465" y1="236.5" x2="460" y2="236.5"/>
	<line class="st4" x1="477" y1="233.5" x2="472" y2="233.5"/>
</g>
<g>
	<path class="st0" d="M365.7,136.6c0.9,0,1.7-0.4,2.3-0.9c0.6-0.6,1-1.5,1-2.4c0-1.8-1.5-3.3-3.3-3.3c-1.8,0-3.3,1.5-3.3,3.3
		c0,0.9,0.4,1.8,1,2.4C364,136.3,364.8,136.6,365.7,136.6z M365.7,131c1.3,0,2.3,1,2.3,2.3c0,1.3-1,2.3-2.3,2.3s-2.3-1.1-2.3-2.3
		C363.3,132,364.4,131,365.7,131z"/>
	<path class="st0" d="M453.4,223l1.3-4H506v-2h-20v-12c1.1-0.1,2.1-0.3,3.1-0.8c0.2-0.1,0.3-0.2,0.5-0.3c1.8-1.1,3.2-2.9,3.8-5.2
		c0.2-0.9,0.2-1.8,0.1-2.9l-1.4-12.1l-3.4-28.9c-0.3-2.3-2.1-3.4-3.6-3.4c-1.5,0-3.3,1-3.6,3.3l-3.3,28.4c-0.6-0.2-1.3-0.3-1.9-0.3
		h-0.2c-1.2,0-2.4,0.3-3.3,0.9c-0.3,0.1-0.5,0.3-0.8,0.5c-1.7,1.3-2.8,3.3-2.8,5.5v13.2c0,0.3,0,0.5,0,0.8c-3-1.4-6.5-2.8-10.2-4
		l0.5-1.6l-1-0.3l-0.5,1.6c-1-0.3-2-0.6-3-0.8c-4.6-1.2-9.6-1.9-14.8-1.9V196h-1v0.9c-6.3,0.1-12.2,1.1-17.4,2.6l-0.5-1.5l-1,0.3
		l0.5,1.5c-1.8,0.5-3.5,1.1-5.1,1.8c-2.3,0.9-4.4,1.8-6.4,2.8c-1.5,0.7-2.8,1.4-4.1,2.1l-0.9-1.5l-0.9,0.5l4.6,7.8
		c-1.9,1-3.5,2-4.8,2.9c-0.5,0.3-0.9,0.6-1.2,0.8c-0.9,0-1.8-0.1-2.8-0.1c-0.3,0-0.7,0-1-0.1v-11c0.3,0,0.6,0,0.9-0.1
		c0.7-0.1,1.4-0.3,2.1-0.5c2.6-1,4.7-3.2,5.6-6c0.1-0.1,0.1-0.3,0.1-0.4c0.1-0.4,0.2-0.8,0.2-1.2c0-0.3,0-0.6,0-1
		c0-0.4,0-0.8-0.1-1.2l0-0.1l-0.1-1.2l-0.9-7.3l-0.3-2.3l-0.4-3.5l-0.2-1.8l-2.4-19.4l-0.2-1.3l-0.5-3.7l-0.2-1.2l-0.5-4.1
		c-0.3-2.1-2-3.6-4.1-3.6c-1.8,0-3.4,1.1-3.9,2.8c-0.1,0.3-0.2,0.6-0.2,0.9l0,0.1l-0.2,2l-0.1,1.1l-1.3,10.2l-0.2,1.3l-0.5,3.8
		l-0.2,1.5l-2.8,22.4l-0.3,2.2l0,0.1l0,0.2l-0.1,0.9c-0.1,0.5-0.1,0.9-0.1,1.3c0,0.7,0.1,1.4,0.2,2.1c0.3,1.2,0.8,2.2,1.5,3.2
		c0.2,0.3,0.5,0.7,0.8,1c0.5,0.6,1.1,1.1,1.8,1.5c1.3,0.9,2.9,1.4,4.5,1.4c0.1,0,0.1,0,0.2,0v10.8c-3.1-0.2-6.6-0.6-10.6-1.2
		c-0.8-0.1-1.7-0.3-2.6-0.4h0c-0.4-0.1-0.9-0.1-1.3-0.2c0-0.1,0-0.1,0-0.2c-0.1-1.4-0.2-2.9-0.4-4.4c-0.1-0.9-0.2-1.9-0.3-2.9
		c-0.2-1.6-0.3-3.3-0.5-5c-0.1-0.7-0.1-1.4-0.2-2.1c-0.1-0.5-0.1-1-0.2-1.5c-0.1-0.7-0.1-1.3-0.2-2c-0.6-5.3-1.3-11-2.2-16.8
		c0-0.3-0.1-0.6-0.1-0.9c-0.5-3.2-1-6.4-1.5-9.4c-0.9-4.9-1.8-9.6-2.6-13.9c-0.5-2.4-1-4.7-1.5-6.9c-0.4-1.8-0.8-3.6-1.2-5.2
		c0.4-0.2,0.7-0.6,0.9-0.9c0.3-0.5,0.5-1,0.5-1.5v-0.1c0-0.3,0-0.6-0.1-0.8c0,0,0,0,0,0c-0.2-0.8-0.8-1.4-1.5-1.8
		c0.2-0.2,0.4-0.4,0.5-0.6c0.3-0.4,0.6-0.8,0.9-1.3c0.1-0.2,0.2-0.5,0.3-0.7c0.2-0.5,0.3-1,0.4-1.5c0-0.2,0.1-0.5,0.1-0.8
		c0,0,0-0.1,0-0.2c0-0.5,0-1-0.2-1.5c0-0.2-0.1-0.5-0.2-0.7c-0.2-0.5-0.4-1.1-0.7-1.5c-0.1-0.2-0.3-0.4-0.4-0.6
		c-0.4-0.5-0.8-0.9-1.2-1.2c-0.2-0.2-0.4-0.3-0.6-0.4c-0.5-0.3-1-0.6-1.6-0.7c-0.2-0.1-0.5-0.1-0.7-0.2c-0.4-0.1-0.9-0.1-1.3-0.1
		c-0.2,0-0.3,0-0.5,0c-0.2,0-0.5,0-0.7,0.1c-0.6,0.1-1.2,0.3-1.7,0.5c-0.2,0.1-0.4,0.2-0.7,0.3c-0.5,0.3-1,0.7-1.4,1.1
		c-0.2,0.2-0.3,0.4-0.5,0.6c-0.4,0.5-0.7,0.9-0.9,1.5c-0.1,0.2-0.2,0.5-0.3,0.7c-0.2,0.5-0.3,1.1-0.3,1.6c0,0.2,0,0.3,0,0.5
		c0,0.1,0,0.2,0,0.3c0,0.6,0.1,1.1,0.3,1.6c0.1,0.3,0.2,0.5,0.3,0.8c0.2,0.5,0.5,0.9,0.8,1.4c0.2,0.2,0.3,0.4,0.5,0.7
		c0.1,0.1,0.2,0.2,0.3,0.3c-1,0.5-1.7,1.5-1.7,2.7v0.1c0,0.3,0,0.6,0.1,0.9c0.2,0.6,0.6,1.1,1.1,1.5c-0.1,0.3-0.2,0.7-0.2,1
		c-0.3,1.4-0.6,2.9-1,4.4c0,0,0,0,0,0c-0.2,0.9-0.4,1.9-0.6,2.8c-0.4,2.1-0.9,4.3-1.4,6.6v0c-1.3,6.3-2.5,13.3-3.6,20.7
		c-0.9,6.1-1.7,12-2.3,17.5c-0.1,0.7-0.2,1.3-0.2,2c0,0,0,0.1,0,0.1c-0.1,0.5-0.1,1-0.2,1.5c-0.3,2.4-0.5,4.8-0.7,6.9
		c-0.1,1-0.2,2-0.3,3c0,0.1,0,0.1,0,0.2c-0.1,0-0.2,0-0.3,0c-0.9-0.1-1.7-0.1-2.5-0.2c-2.4-0.2-4.8-0.3-7.1-0.4
		c-0.8,0-1.5-0.1-2.3-0.1c-1.2,0-2.3-0.1-3.5-0.1c-0.8,0-1.7,0-2.5,0c-1.8,0-3.6,0-5.3,0c-0.7,0-1.4,0-2,0
		c-5.7,0.1-10.8,0.5-15.2,0.9c-14.2,1.4-23.5,3.8-25.8,4.5l-2.9-2.9H161c-5.9,0-8,4.6-8,9c0,2.9-3.5,3.9-4.1,4h-20.5l4.2,9.1
		c-3.6,0.3-7.7,0.5-12.9,0.5c-16.6,0-24.4-2.1-30.6-3.7c-3.8-1-7-1.9-11.2-1.9v2c3.9,0,6.9,0.8,10.7,1.8c6,1.6,14.2,3.8,31.1,3.8
		c13.7,0,20.6-1.4,27.3-2.8c6.6-1.4,13.5-2.8,27-2.8c13.5,0,20.3,1.4,27,2.8c6.7,1.4,13.7,2.8,27.3,2.8s20.6-1.4,27.4-2.8
		c6.6-1.4,13.5-2.8,27-2.8c13.5,0,20.3,1.4,27,2.8c6.7,1.4,13.7,2.8,27.4,2.8v-2c-13.5,0-20.3-1.4-26.9-2.8h0c0,0,0,0,0,0s0,0,0,0
		l4.8-6.8h113.6l-1-3h24.2l-1,3H507v-2H453.4z M475,216.2c-1.2-0.8-2.7-1.7-4.3-2.6l2.4-4.1c0.5,0.2,1.1,0.4,1.7,0.5
		c0.1,0,0.1,0,0.2,0V216.2z M469.8,213c-3.6-2-8.2-4.1-13.4-5.8l1-3.1c5.5,1.7,10.3,3.9,14,6L469.8,213z M484,217h-7v-7.1
		c1-0.1,2-0.5,2.9-1.1c1.4-0.9,2.5-2.4,2.9-4c0.3,0.1,0.6,0.1,1,0.1c0.1,0,0.2,0,0.3,0V217z M483.4,155.1c0.1-1.2,1-1.6,1.6-1.6
		c0.7,0,1.5,0.4,1.6,1.6l4.3,36.8l0.5,4.2c0.1,0.9,0.1,1.5-0.1,2.2c-0.3,1.1-0.8,2-1.5,2.8c-0.3,0.3-0.7,0.6-1,0.9
		c-0.9,0.6-2.1,1-3.2,1h-1.2c-0.5,0-0.9-0.1-1.4-0.2v-12.9c0-1.2-0.3-2.2-0.8-3.2c-0.5-1-1.3-1.9-2.3-2.5L483.4,155.1z M471,189.9
		c0-1.2,0.4-2.3,1.1-3.1c0.9-1.1,2.3-1.8,3.8-1.8h0.2c0.6,0,1.2,0.1,1.7,0.3c0.7,0.3,1.4,0.7,1.9,1.2c0.8,0.9,1.3,2,1.3,3.3v13.2
		c0,0.4,0,0.7-0.1,1.1c-0.1,0.6-0.4,1.1-0.7,1.6c-0.9,1.3-2.4,2.2-4.1,2.2h-0.2c-0.5,0-0.9-0.1-1.4-0.2c-0.1,0-0.3-0.1-0.4-0.2
		c-0.3-0.1-0.6-0.3-0.9-0.5c-0.1,0-0.1-0.1-0.2-0.1c-0.7-0.5-1.3-1.2-1.6-2c-0.3-0.6-0.4-1.3-0.4-2V189.9z M458.5,200.9
		c4,1.2,7.6,2.8,10.8,4.3c0.5,1.6,1.5,2.9,2.9,3.8l-0.2,0.4c-3.8-2.1-8.6-4.4-14.2-6.1L458.5,200.9z M440,197.9
		c5.1,0,10,0.8,14.4,1.9c1.1,0.2,2.1,0.5,3.1,0.8l-0.8,2.4c-0.9-0.3-1.8-0.5-2.8-0.7c-4.3-1.1-9-1.8-14-1.8V197.9z M440,201.4
		c5,0,9.7,0.8,14,1.9c0.8,0.2,1.7,0.4,2.5,0.7l-1,3.1c-0.5-0.1-0.9-0.3-1.4-0.4c-4.3-1.2-9-2-14-2.1V201.4z M439,197.9v2.5
		c-5.8,0-11.3,1-16.3,2.4l-0.8-2.4C427.1,199,432.8,197.9,439,197.9z M439,201.4v3.1c-5.3,0-10.4,0.8-15.1,2.1l-1-2.9
		C427.9,202.4,433.3,201.4,439,201.4z M405.5,207.3c1.5-0.8,3.2-1.7,5-2.6c1.3-0.6,2.7-1.2,4.2-1.8c2-0.8,4.1-1.5,6.3-2.2l0.8,2.4
		c-5.9,1.8-11,4.2-15,6.4L405.5,207.3z M407.3,210.3c3.9-2.2,9-4.5,14.8-6.3l0.9,2.9c-5.5,1.6-10.4,3.8-14.3,5.9L407.3,210.3z
		 M439,206.5c5.3,0,10.4,0.9,15,2.2c7.8,2.2,14.3,5.7,18.6,8.3h-18.2c-0.1-0.2-0.2-0.4-0.3-0.6c-2.8-4.9-8.7-8.3-15-8.3
		c-6.3,0-11.8,3.4-14.4,8.9h-19.2C412.2,212.8,424.8,206.5,439,206.5z M389.2,198.3c-0.2-0.8-0.2-1.6-0.1-2.6l3-23.6l2.2-17.9
		l0.1-1.1l0.4-3.2c0,0,0-0.1,0-0.1c0.2-1.3,1.3-1.8,2.1-1.8c0.9,0,2,0.5,2.1,1.9l5.8,45.8c0.1,1,0.1,1.8-0.1,2.6
		c-0.8,3.2-3.7,5.5-7,5.5h-1.5C392.9,203.9,390,201.6,389.2,198.3z M375.5,179.3c0.9,6.2,1.7,12.2,2.3,17.8c0.1,0.7,0.2,1.3,0.2,2
		c0.2,1.7,0.4,3.3,0.5,4.9c0.1,0.7,0.1,1.4,0.2,2.1c0.1,0.5,0.1,1.1,0.2,1.6c0.2,2.4,0.4,4.7,0.6,6.8c-0.4-0.1-0.9-0.2-1.4-0.2
		c-0.3-0.1-0.6-0.1-0.9-0.2c-0.1,0-0.2,0-0.2,0c-0.3-1.2-0.6-2.5-0.8-3.9c-0.1-0.6-0.3-1.3-0.4-2c-0.2-0.7-0.3-1.4-0.5-2.1
		c-0.2-0.7-0.3-1.4-0.4-2.1c-0.3-1.4-0.6-2.8-0.8-4.2c-0.1-0.6-0.3-1.3-0.4-2c-1-5.5-2.1-11.5-3.1-17.7c-2.1-14-3.4-27-4.1-36.1h2.3
		c0.8,3.5,1.7,7.7,2.6,12.2C372.7,163.1,374.2,171,375.5,179.3z M373.7,208.3c0.1,0.7,0.3,1.3,0.4,2c0.2,1.1,0.5,2.2,0.7,3.2
		c-1.3-0.2-2.6-0.5-3.9-0.7c-0.7-0.1-1.5-0.3-2.2-0.4c-1.3-0.2-2.6-0.4-3.8-0.6c-0.8-0.1-1.6-0.2-2.3-0.3c-2-0.3-3.9-0.5-5.8-0.7
		c0-0.2,0.1-0.5,0.1-0.7c0.1-0.7,0.3-1.3,0.4-2c0.2-1,0.4-2,0.6-3c0.1-0.7,0.3-1.4,0.4-2c0.2-1.1,0.4-2.2,0.6-3.3
		c0.1-0.6,0.2-1.3,0.4-1.9c0-0.1,0-0.2,0.1-0.4c0.7-3.7,1.4-7.5,2.1-11.6c0.3-1.8,0.6-3.7,0.9-5.6c1.1-7.6,2.1-14.9,2.8-21.5
		c0.1-0.9,0.2-1.9,0.3-2.8c0.2,2.1,0.5,4.3,0.7,6.6c0.6,5.6,1.4,11.6,2.3,17.7c0.9,6.1,2,12.1,3,17.6c0.1,0.7,0.2,1.3,0.4,2
		c0.1,0.3,0.1,0.5,0.2,0.8c0,0,0,0,0,0c0.1,0.7,0.3,1.4,0.4,2C372.9,204.7,373.3,206.6,373.7,208.3z M369.1,142h-2.9h-1.6h-1.4h-1
		c-0.3,0-0.5-0.1-0.7-0.3c-0.2-0.2-0.2-0.4-0.2-0.6v-0.1c0-0.5,0.4-0.9,0.9-0.9h1.7h5.2c0.5,0,0.8,0.3,0.9,0.8c0,0.1,0,0.1,0,0.2
		v0.1c0,0.4-0.3,0.8-0.7,0.9C369.2,142,369.2,142,369.1,142z M360.8,133.5c0-0.1,0-0.1,0-0.2c0,0,0-0.1,0-0.1c0-0.5,0.1-1,0.3-1.5
		c0-0.1,0.1-0.2,0.1-0.2c0.2-0.5,0.5-0.9,0.8-1.3c0.1-0.1,0.1-0.1,0.2-0.2c0.4-0.4,0.8-0.7,1.2-1c0.1,0,0.1-0.1,0.2-0.1
		c0.5-0.2,1-0.4,1.5-0.5c0.1,0,0.1,0,0.2,0c0.2,0,0.3,0,0.5,0c0.4,0,0.8,0,1.1,0.1c0.1,0,0.1,0,0.2,0c0.5,0.1,1,0.4,1.4,0.7
		c0,0,0.1,0.1,0.2,0.1c0.4,0.3,0.8,0.7,1.1,1.1c0,0.1,0.1,0.1,0.1,0.2c0.3,0.4,0.5,0.9,0.6,1.4c0,0.1,0.1,0.1,0.1,0.2
		c0.1,0.3,0.1,0.7,0.1,1.1c0,0.1,0,0.2,0,0.3c0,0.1,0,0.2,0,0.2c0,0.5-0.2,0.9-0.4,1.3c0,0.1-0.1,0.2-0.1,0.2
		c-0.2,0.4-0.5,0.8-0.8,1.1c-0.1,0.1-0.1,0.1-0.2,0.2c0,0,0,0-0.1,0.1c-0.3,0.3-0.6,0.5-1,0.7c-0.1,0-0.2,0.1-0.3,0.2
		c-0.2,0.1-0.3,0.1-0.5,0.2c0,0-0.1,0-0.1,0c-0.2,0.1-0.4,0.1-0.6,0.1c-0.1,0-0.2,0-0.3,0c-0.2,0-0.4,0-0.5,0c-0.3,0-0.5,0-0.8-0.1
		c-0.1,0-0.2,0-0.3-0.1c-0.1,0-0.3-0.1-0.4-0.1c-0.1,0-0.3-0.1-0.4-0.2c-0.1-0.1-0.3-0.1-0.4-0.2c-0.1,0-0.2-0.1-0.3-0.2
		c-0.4-0.2-0.7-0.5-1-0.8c0,0,0,0,0,0l-0.2-0.2c-0.3-0.4-0.5-0.8-0.7-1.2c0-0.1-0.1-0.2-0.1-0.3C360.9,134.4,360.8,134,360.8,133.5z
		 M352.5,203.1c0.1-0.7,0.1-1.4,0.2-2.1c0.1-0.7,0.1-1.4,0.2-2.2c0.1-0.7,0.2-1.3,0.2-2c0.6-5.5,1.4-11.5,2.3-17.6
		c2-13.3,4.6-25.6,6.5-34.4c0.1-0.3,0.1-0.6,0.2-0.9h0.1h2h0.2c-0.5,6-1.2,13.6-2.2,22.1c-0.5,4.5-1.2,9.2-1.9,14
		c-0.9,6.2-2,12.1-3,17.6c-0.1,0.7-0.2,1.3-0.4,1.9c-0.5,2.4-0.9,4.6-1.4,6.7c-0.2,1.2-0.5,2.4-0.8,3.6c0,0.1,0,0.2,0,0.2
		c0,0.2-0.1,0.3-0.1,0.5c-0.8-0.1-1.5-0.2-2.2-0.2c-0.2,0-0.4,0-0.7-0.1c0-0.1,0-0.1,0-0.2c0.1-0.9,0.2-1.8,0.2-2.8
		C352.3,206,352.4,204.6,352.5,203.1z M231,214h48.6l7,7c-2.5,0.3-5,0.5-7.6,0.8l-4-4.7h-11v6h0.4c-1.5,0.1-3,0.2-4.4,0.3V217h-15v7
		h5.1c-6.8,0.4-13.3,0.7-19.1,0.9V214z M277.7,221.8c-0.5,0-1,0.1-1.6,0.2H265v-4h9.5L277.7,221.8z M259,218v5h-6v-5H259z M252,218
		v5h-6v-5H252z M206,214h24v10.9c-2.5,0.1-4.8,0.1-7,0.1h-17V214z M181,214h24v11h-24V214z M155,221c0-2.1,0.6-7,6-7h19v11h-26.8
		C154.2,224,155,222.7,155,221z M315.6,220.3l-7.7,11.1c-6.1-1.2-13-2.4-25.2-2.4c-10.9,0-17.6,0.9-23.2,2c-1.4,0.3-2.8,0.5-4.1,0.8
		c-0.3,0.1-0.5,0.1-0.8,0.2c-4.1,0.8-8.3,1.7-14.2,2.2h0c-3.3,0.3-7.2,0.5-11.9,0.5c-3.2,0-5.9-0.1-8.5-0.2h-0.1
		c-7.8-0.4-12.8-1.4-17.6-2.4c-0.3-0.1-0.5-0.1-0.8-0.2c-1.1-0.2-2.2-0.5-3.4-0.7c-5.8-1.1-12.5-2.1-23.9-2.1
		c-13.7,0-20.6,1.4-27.4,2.8c-3.6,0.8-7.2,1.5-12,2l-3.2-6.9H223c26.9,0,81.8-5,91.7-8.4c0.3-0.1,0.8,0.3,0.9,0.7
		C315.8,219.7,315.8,220.1,315.6,220.3z M316.2,223l1.1-1.5c0.3-0.4,0.5-1,0.5-1.5v0c0-0.4,0-0.9-0.2-1.3c-0.5-1.3-2-2.4-3.4-1.9
		c-3.6,1.2-13.1,2.6-25,4l-4.2-4.2c3.4-0.9,12-2.9,24.4-4.1c6.5-0.6,14.7-1.1,24.2-1c1.5,0,3.1,0.1,4.7,0.1c2.6,0.1,5.3,0.2,8.1,0.4
		c0.7,0,1.3,0.1,2,0.1c0.4,0,0.9,0.1,1.3,0.1v0c0.7,0,1.3,0.1,2,0.2c0.5,0,1.1,0.1,1.6,0.2c0.3,0,0.7,0.1,1,0.1c0.3,0,0.7,0.1,1,0.1
		c0.3,0,0.7,0.1,1,0.1c1.9,0.2,3.8,0.4,5.8,0.7c0.7,0.1,1.3,0.2,2,0.3c1.6,0.2,3.2,0.5,4.9,0.8c0.7,0.1,1.3,0.2,2,0.3
		c1.5,0.2,2.9,0.5,4.4,0.8c0.5,0.1,1,0.2,1.5,0.3c0.2,0,0.4,0.1,0.7,0.1c0.7,0.1,1.5,0.3,2.2,0.4c0.7,0.1,1.4,0.2,2,0.4
		c7,1.2,13,1.7,17.5,1.9c2.8,0.1,5.1,0.2,6.8,0.2h18.3l1.3,4H316.2z M452,221H427l-0.8-2.5c2-4.9,6.8-8.4,12.8-8.4
		c6,0,11.7,3.5,13.8,8.4L452,221z"/>
</g>
</svg>
